# AST/ASF file generated using VICON BodyLanguage
# -----------------------------------------------
:version 1.10
:name VICON
:units
  mass 1.0
  length 0.45
  angle deg
:documentation
   .ast/.asf automatically generated from VICON data using
   VICON BodyBuilder and BodyLanguage model FoxedUp or BRILLIANT.MOD
:root
   order TX TY TZ RX RY RZ
   axis XYZ
   position 0 0 0  
   orientation 0 0 0 
:bonedata
  begin
     id 1 
     name lhipjoint
     direction 0.567725 -0.736092 0.368589 
     length 2.42353 
     axis 0 0 0  XYZ
  end
  begin
     id 2 
     name lfemur
     direction 0.34202 -0.939693 0  
     length 7.24894  
     axis 0 0 20  XYZ
    dof rx ry rz
    limits (-160.0 20.0)
           (-70.0 70.0)
           (-60.0 70.0)
  end
  begin
     id 3 
     name ltibia
     direction 0.34202 -0.939693 0   
     length 7.6997   
     axis 0 0 20   XYZ
    dof rx
    limits (-10.0 170.0)
  end
  begin
     id 4 
     name lfoot
     direction 0.100767 -0.276854 0.955614   
     length 2.37556   
     axis -90 7.62852e-016 20   XYZ
    dof rx rz
    limits (-45.0 90.0)
           (-70.0 20.0)
  end
  begin
     id 5 
     name ltoes
     direction 1.53592e-011 -4.21894e-011 1   
     length 1.18363   
     axis -90 7.62852e-016 20   XYZ
    dof rx
    limits (-90.0 20.0)
  end
  begin
     id 6 
     name rhipjoint
     direction -0.556459 -0.742938 0.372017   
     length 2.4012  
     axis 0 0 0  XYZ 
  end
  begin
     id 7 
     name rfemur
     direction -0.34202 -0.939693 0   
     length 7.5119   
     axis 0 0 -20   XYZ
    dof rx ry rz
    limits (-160.0 20.0)
           (-70.0 70.0)
           (-70.0 60.0)
  end
  begin
     id 8 
     name rtibia
     direction -0.34202 -0.939693 0   
     length 7.50155   
     axis 0 0 -20   XYZ
    dof rx
    limits (-10.0 170.0)
 end
 begin
     id 9 
     name rfoot
     direction -0.118427 -0.325376 0.938139   
     length 2.32487  
     axis -90 -7.62852e-016 -20   XYZ
    dof rx rz
    limits (-45.0 90.0)
           (-20.0 70.0)
  end
  begin
     id 10 
     name rtoes
     direction -1.53525e-011 -4.21868e-011 1   
     length 1.15233   
     axis -90 -7.62852e-016 -20   XYZ
    dof rx
    limits (-90.0 20.0)
  end
  begin
     id 11 
     name lowerback
     direction 0.0287568 0.999577 -0.00434502   
     length 2.15243   
     axis 0 0 0   XYZ
    dof rx ry rz
    limits (-20.0 45.0)
           (-30.0 30.0)
           (-30.0 30.0)
  end
  begin
     id 12 
     name upperback
     direction 0.0294009 0.99956 0.00404628   
     length 2.15427   
     axis 0 0 0   XYZ
    dof rx ry rz
    limits (-20.0 45.0)
           (-30.0 30.0)
           (-30.0 30.0)
  end
  begin
     id 13 
     name thorax
     direction 0.0151014 0.999868 0.0059419   
     length 2.14898   
     axis 0 0 0   XYZ
    dof rx ry rz
    limits (-20.0 45.0)
           (-30.0 30.0)
           (-30.0 30.0)
  end
  begin
     id 14 
     name lowerneck
     direction -0.0249197 0.989906 0.139515   
     length 1.6861   
     axis 0 0 0   XYZ
    dof rx ry rz
    limits (-20.0 45.0)
           (-30.0 30.0)
           (-30.0 30.0)
  end
  begin
     id 15 
     name upperneck
     direction 0.0438463 0.988795 -0.142693   
     length 1.71276   
     axis 0 0 0   XYZ
    dof rx ry rz
    limits (-20.0 45.0)
           (-30.0 30.0)
           (-30.0 30.0)
  end
  begin
     id 16
     name head
     direction 0.0148499 0.997845 -0.0639186  
     length 1.7209  
     axis 0 0 0   XYZ
    dof rx ry rz
    limits (-20.0 45.0)
           (-30.0 30.0)
           (-30.0 30.0)
  end
  begin
     id 17 
     name lclavicle
     direction 0.940298 0.323464 -0.105876  
     length 3.9048  
     axis 0 0 0   XYZ
    dof ry rz
    limits (-20.0 10.0)
           (0.0 20.0)
  end
  begin
     id 18 
     name lhumerus
     direction 1 -4.48954e-011 -4.9675e-028   
     length 4.6851   
     axis 180 -30 -90   XYZ
    dof rx ry rz
    limits (-60.0 90.0)
           (-90.0 90.0)
           (-90.0 90.0)
  end
  begin
     id 19
     name lradius
     direction 1 -4.48992e-011 -1.03359e-026   
     length 3.39626   
     axis 180 -30 -90   XYZ
    dof rx
    limits (-10.0 170.0)
  end
  begin
     id 20
     name lwrist
     direction 1 -4.48906e-011 -1.67336e-026   
     length 1.69813   
     axis 9.90442e-015 90 90   XYZ
    dof ry
    limits (-180.0 0.0)
 end
  begin
     id 21 
     name lhand
     direction 1 -4.49006e-011 -3.34673e-026   
     length 0.486078   
     axis 2.1355e-014 90 90   XYZ
    dof rx rz
    limits (-90.0 90.0)
           (-45.0 45.0)
  end
  begin
     id 22 
     name lfingers
     direction 1 -4.48992e-011 -6.69345e-026   
     length 0.391889   
     axis 4.27099e-014 90 90   XYZ
    dof rx
    limits (0.0 90.0)
  end
  begin
     id 23
     name lthumb
     direction 0.707107 -6.34926e-011 0.707107   
     length 0.562676   
     axis -90 45 2.85299e-015   XYZ
    dof rx rz
    limits (-45.0 45.0)
           (-45.0 45.0)
  end
  begin
     id 24 
     name rclavicle
     direction -0.882459 0.414895 -0.221648   
     length 3.44646  
     axis 0 0 0   XYZ 
    dof ry rz
    limits (-10.0 20.0)
           (-20.0 0.0)
  end
  begin
     id 25 
     name rhumerus
     direction -1 -4.48962e-011 -2.37984e-027  
     length 5.55576   
     axis 180 30 90   XYZ
    dof rx ry rz
    limits (-90.0 60.0)
           (-90.0 90.0)
           (-90.0 90.0)
  end
  begin
     id 26 
     name rradius
     direction -1 -4.48982e-011 -6.86791e-027   
     length 3.32774   
     axis 180 30 90   XYZ
    dof rx
    limits (-10.0 170.0)
  end
  begin
     id 27 
     name rwrist
     direction -1 -4.48961e-011 -1.67336e-026   
     length 1.66387   
     axis 9.90442e-015 -90 -90   XYZ
    dof ry
    limits (-180.0 0.0)
  end
  begin
     id 28
     name rhand
     direction -1 -4.4897e-011 -3.34673e-026   
     length 0.507628   
     axis 2.1355e-014 -90 -90   XYZ
    dof rx rz
    limits (-90.0 90.0)
           (-45.0 45.0)
  end
  begin
     id 29
     name rfingers
     direction -1 -4.48854e-011 -6.69345e-026   
     length 0.409263   
     axis 4.27099e-014 -90 -90   XYZ
    dof rx
    limits (0.0 90.0)
  end
  begin
     id 30
     name rthumb
     direction -0.707107 -6.34913e-011 0.707107   
     length 0.587622   
     axis -90 -45 -2.85299e-015   XYZ
    dof rx rz
    limits (-45.0 45.0)
           (-45.0 45.0)
  end
:hierarchy
  begin
    root lhipjoint rhipjoint lowerback
    lhipjoint lfemur
    lfemur ltibia
    ltibia lfoot
    lfoot ltoes
    rhipjoint rfemur
    rfemur rtibia
    rtibia rfoot
    rfoot rtoes
    lowerback upperback
    upperback thorax
    thorax lowerneck lclavicle rclavicle
    lowerneck upperneck
    upperneck head
    lclavicle lhumerus
    lhumerus lradius
    lradius lwrist
    lwrist lhand lthumb
    lhand lfingers
    rclavicle rhumerus
    rhumerus rradius
    rradius rwrist
    rwrist rhand rthumb
    rhand rfingers
  end

#!OML:ASF E:\motion texture\Top Level 1\Subject 1\Session 1\male.ASF
:FULLY-SPECIFIED
:DEGREES
1
root 43.5233 18.0073 5.45496 108.4 -85.8611 -95.3846
lowerback -4.68093 -1.03146 2.55144
upperback -3.09408 -1.56733 2.78786
thorax -0.545672 -0.838867 1.36832
lowerneck -15.1402 -8.96178 -12.0476
upperneck 14.6585 -11.1291 8.55793
head 8.1965 -5.22677 3.42507
rclavicle 3.72721e-016 -1.98785e-015
rhumerus -28.5137 -16.8311 -78.9452
rradius 25.5121
rwrist 18.6921
rhand -14.4473 -25.1342
rfingers 7.12502
rthumb 11.6978 -54.7876
lclavicle 3.72721e-016 -1.98785e-015
lhumerus -33.1039 22.4935 78.7156
lradius 26.4948
lwrist -29.3867
lhand -11.6813 17.3398
lfingers 7.12502
lthumb 14.3641 46.8228
rfemur -11.1711 1.84881 26.2732
rtibia 13.8225
rfoot -9.27466 -14.0451
rtoes 16.2049
lfemur -9.42449 -3.51702 -12.9268
ltibia 10.9195
lfoot -6.84617 0.110054
ltoes -12.2107
2
root 43.5295 17.9774 5.45982 108.521 -86.0566 -95.4912
lowerback -4.75759 -1.0473 2.47045
upperback -3.08107 -1.58634 2.67704
thorax -0.490237 -0.846581 1.29689
lowerneck -15.1318 -8.99045 -12.1216
upperneck 14.6674 -11.169 8.63562
head 8.21172 -5.24308 3.4569
rclavicle 4.77083e-015 -9.14409e-015
rhumerus -28.4994 -16.6157 -79.0996
rradius 25.635
rwrist 18.7243
rhand -14.2504 -25.4866
rfingers 7.12502
rthumb 11.8877 -55.1291
lclavicle 4.77083e-015 -9.14409e-015
lhumerus -32.9821 22.5027 78.6619
lradius 26.6137
lwrist -29.3274
lhand -11.6543 17.3163
lfingers 7.12502
lthumb 14.3901 46.7975
rfemur -11.1694 1.74402 26.0883
rtibia 13.7891
rfoot -9.82634 -14.1177
rtoes 16.9443
lfemur -9.39235 -3.55872 -13.2636
ltibia 10.8974
lfoot -7.48106 0.254203
ltoes -11.4095
3
root 43.5381 17.9452 5.45742 108.235 -85.8897 -95.2393
lowerback -4.60539 -1.04763 2.62057
upperback -3.17692 -1.58545 2.71605
thorax -0.676867 -0.85095 1.25826
lowerneck -14.9772 -8.9539 -12.1727
upperneck 14.6401 -11.1326 8.67242
head 8.17703 -5.23058 3.48792
rclavicle -2.11209e-015 9.14409e-015
rhumerus -28.6643 -16.3291 -79.1749
rradius 25.678
rwrist 18.6329
rhand -14.4207 -25.3441
rfingers 7.12502
rthumb 11.7234 -54.996
lclavicle -2.11209e-015 9.14409e-015
lhumerus -33.1873 22.4879 78.5323
lradius 26.846
lwrist -29.2305
lhand -11.7174 17.3049
lfingers 7.12502
lthumb 14.3293 46.7904
rfemur -11.0788 1.94293 26.3784
rtibia 13.6494
rfoot -10.2595 -14.4283
rtoes 17.3994
lfemur -9.31156 -3.54275 -13.0515
ltibia 10.8486
lfoot -8.08908 0.439329
ltoes -10.5966
4
root 43.5453 17.9122 5.46024 108.712 -85.8035 -95.7181
lowerback -4.64212 -0.998299 2.71381
upperback -3.17722 -1.52556 2.71969
thorax -0.659326 -0.822579 1.21142
lowerneck -14.91 -8.9876 -12.2714
upperneck 14.6699 -11.1808 8.73463
head 8.19044 -5.25547 3.51913
rclavicle -6.4605e-015 2.5842e-014
rhumerus -28.6644 -16.3571 -79.1515
rradius 25.6729
rwrist 18.6697
rhand -14.4318 -25.0924
rfingers 7.12502
rthumb 11.7127 -54.745
lclavicle -6.4605e-015 2.5842e-014
lhumerus -33.1585 22.4894 78.5306
lradius 27.0211
lwrist -29.1028
lhand -11.8431 17.3876
lfingers 7.12502
lthumb 14.2082 46.8817
rfemur -11.0928 2.13747 26.5617
rtibia 13.6706
rfoot -10.6986 -14.7406
rtoes 17.5865
lfemur -9.23321 -3.68222 -13.027
ltibia 10.7092
lfoot -8.60686 0.799847
ltoes -9.98429
5
root 43.5538 17.8815 5.46223 107.911 -85.7095 -94.9584
lowerback -4.61138 -0.997221 2.85465
upperback -3.17886 -1.52828 2.72787
thorax -0.681801 -0.826413 1.14178
lowerneck -14.8705 -8.97711 -12.2725
upperneck 14.6958 -11.1658 8.69544
head 8.18811 -5.25323 3.5096
rclavicle 2.48481e-017 1.59028e-015
rhumerus -28.6761 -16.3453 -79.1747
rradius 25.7009
rwrist 18.616
rhand -14.4126 -25.7503
rfingers 7.12502
rthumb 11.7313 -55.4018
lclavicle 2.48481e-017 1.59028e-015
lhumerus -33.1751 22.5712 78.4499
lradius 27.1905
lwrist -28.859
lhand -11.9266 17.2973
lfingers 7.12502
lthumb 14.1278 46.797
rfemur -11.0055 2.25009 26.7645
rtibia 13.5795
rfoot -11.1082 -15.0183
rtoes 17.9656
lfemur -9.12638 -3.80184 -12.9867
ltibia 10.6316
lfoot -9.19777 1.12428
ltoes -9.13689
